<?xml version="1.0" standalone="no"?>
<!DOCTYPE svg PUBLIC "-//W3C//DTD SVG 20010904//EN"
 "http://www.w3.org/TR/2001/REC-SVG-20010904/DTD/svg10.dtd">
<svg version="1.0" xmlns="http://www.w3.org/2000/svg"
 width="540.000000pt" height="540.000000pt" viewBox="0 0 540.000000 540.000000"
 preserveAspectRatio="xMidYMid meet">

<g transform="translate(0.000000,540.000000) scale(0.100000,-0.100000)"
fill="#000000" stroke="none">
<path d="M283 5385 c0 -6 6 -12 13 -12 7 0 11 4 8 9 -3 4 0 8 5 8 6 0 11 -5
11 -12 0 -6 3 -8 7 -5 3 4 12 2 19 -4 8 -7 14 -7 19 1 3 6 10 8 14 6 4 -3 8 1
8 8 0 10 -16 14 -52 14 -34 0 -52 -5 -52 -13z"/>
<path d="M5200 5385 c0 -9 4 -14 8 -11 5 3 9 -1 9 -9 0 -8 -4 -15 -9 -15 -4 0
-8 -5 -8 -11 0 -5 4 -8 8 -5 5 3 9 -1 9 -9 0 -8 -4 -12 -9 -9 -4 3 -8 -1 -8
-9 0 -10 9 -14 30 -12 35 3 36 2 13 -16 -15 -12 -16 -12 -8 1 5 9 5 12 -1 7
-14 -13 -12 -114 2 -114 7 0 12 5 11 11 -1 6 3 10 9 9 6 -1 11 4 11 12 0 8 -5
13 -11 12 -5 -1 -10 7 -10 18 0 11 5 19 11 18 6 -1 10 6 10 15 0 43 3 53 16
46 8 -6 8 -3 -1 9 -8 9 -12 22 -9 29 4 9 6 7 6 -4 1 -16 23 -19 38 -4 4 4 8
17 9 30 1 21 -3 23 -63 25 -52 2 -63 -1 -63 -14z m115 -18 c0 -26 -18 -25 -22
1 -2 16 1 22 9 20 7 -3 13 -12 13 -21z m-58 -4 c0 -9 -4 -10 -14 -2 -7 6 -13
12 -13 14 0 1 6 2 13 2 8 0 14 -6 14 -14z m3 -87 c0 -2 -8 -10 -17 -17 -16
-13 -17 -12 -4 4 13 16 21 21 21 13z m-15 -65 c3 -5 2 -12 -3 -15 -5 -3 -9 1
-9 9 0 17 3 19 12 6z"/>
<path d="M5341 5384 c0 -11 3 -14 6 -6 3 7 2 16 -1 19 -3 4 -6 -2 -5 -13z"/>
<path d="M791 5288 c-7 -11 -8 -17 -2 -13 6 3 11 0 11 -7 0 -9 3 -9 10 2 5 8
10 11 10 6 0 -5 7 -3 15 4 8 7 12 16 9 21 -8 13 -25 0 -18 -14 3 -7 -1 -4 -8
5 -13 15 -15 15 -27 -4z"/>
<path d="M5201 5264 c0 -11 3 -14 6 -6 3 7 2 16 -1 19 -3 4 -6 -2 -5 -13z"/>
<path d="M5201 5224 c0 -11 3 -14 6 -6 3 7 2 16 -1 19 -3 4 -6 -2 -5 -13z"/>
<path d="M5223 5125 c0 -6 6 -12 12 -12 6 0 12 6 12 12 0 6 -6 12 -12 12 -6 0
-12 -6 -12 -12z"/>
<path d="M512 5108 c-7 -7 -12 -21 -12 -33 0 -18 6 -21 43 -21 36 0 43 4 45
21 0 11 -2 15 -6 10 -4 -6 -13 -11 -21 -13 -12 -3 -12 -1 0 14 13 16 12 17 -8
12 -13 -4 -26 -1 -30 4 -4 7 -1 8 7 3 9 -5 11 -4 6 3 -9 15 -9 15 -24 0z"/>
<path d="M0 4509 l0 -576 32 1 c19 1 36 7 40 16 4 8 7 -11 7 -43 1 -32 5 -56
9 -53 5 3 9 -1 9 -9 0 -8 -4 -12 -9 -9 -4 3 -8 -2 -8 -11 0 -9 -4 -13 -10 -10
-5 3 -10 -1 -10 -9 0 -9 5 -16 10 -16 6 0 10 -4 10 -9 0 -5 -13 -7 -30 -6 -17
1 -28 -2 -27 -9 1 -6 -4 -10 -10 -9 -9 2 -13 -9 -13 -31 0 -30 3 -34 20 -31
14 3 18 0 13 -8 -13 -20 -11 -34 3 -34 9 0 11 4 4 12 -7 8 -5 12 3 12 8 0 14
-14 15 -34 2 -19 -1 -32 -6 -29 -5 3 -9 -1 -9 -8 0 -7 6 -13 13 -13 7 0 11 3
9 7 -2 3 0 12 6 20 6 11 9 7 9 -15 0 -31 0 -31 54 -30 30 0 58 4 62 8 4 4 13
2 21 -4 7 -6 13 -8 13 -5 0 4 7 1 15 -8 8 -8 15 -20 15 -26 0 -6 5 -8 13 -4 9
6 9 5 0 -7 -9 -11 -9 -19 -2 -26 6 -6 10 -29 11 -51 0 -23 4 -40 8 -37 5 3 7
-3 5 -12 -2 -10 -4 -18 -5 -18 -7 0 -6 -36 1 -41 5 -3 9 -16 9 -30 0 -14 -4
-23 -8 -20 -5 3 -9 -1 -9 -9 0 -8 3 -12 7 -10 4 2 7 -2 7 -10 0 -8 -4 -12 -9
-9 -4 3 -8 -2 -8 -11 0 -10 -5 -13 -12 -9 -7 4 -10 4 -6 -1 4 -4 3 -14 -3 -22
-6 -7 -8 -13 -5 -13 4 0 -3 -10 -14 -22 -12 -13 -16 -24 -10 -26 5 -2 10 -8
10 -13 0 -6 -5 -7 -10 -4 -6 4 -10 -8 -10 -30 0 -22 4 -34 10 -30 13 8 13 -18
0 -31 -5 -5 -10 -24 -12 -41 -1 -17 -7 -31 -12 -30 -6 1 -10 -6 -9 -15 0 -10
1 -30 2 -45 0 -14 4 -23 8 -20 8 8 33 -39 33 -62 0 -9 6 -23 13 -30 6 -8 7
-11 1 -8 -8 5 -12 -10 -13 -44 0 -28 -3 -55 -6 -60 -3 -5 -8 -32 -11 -61 -3
-28 -7 -55 -10 -59 -2 -4 0 -10 5 -13 5 -3 6 -21 1 -40 -6 -26 -3 -39 9 -52 9
-9 10 -14 3 -10 -8 5 -12 -1 -12 -21 0 -22 2 -25 10 -13 5 8 10 10 10 4 0 -5
-6 -16 -12 -23 -10 -11 -10 -12 -1 -7 9 5 12 -3 11 -28 -1 -19 -5 -33 -9 -31
-9 6 -6 -16 5 -34 6 -10 5 -12 -2 -7 -8 5 -11 -1 -10 -18 1 -13 6 -22 10 -20
4 3 8 -34 8 -81 0 -47 -4 -84 -8 -81 -5 3 -9 -1 -9 -9 0 -8 4 -12 9 -9 4 3 8
-11 8 -31 0 -20 -4 -34 -8 -31 -5 3 -9 -1 -9 -9 0 -8 4 -12 9 -9 4 3 8 -2 8
-11 0 -9 -4 -13 -10 -10 -5 3 -10 -1 -10 -9 0 -9 5 -16 10 -16 6 0 10 -5 10
-11 0 -5 -4 -8 -8 -5 -5 3 -9 -1 -9 -9 0 -8 4 -15 9 -15 4 0 8 -5 8 -11 0 -5
-4 -8 -8 -5 -5 3 -9 -1 -9 -9 0 -8 4 -15 9 -15 4 0 8 -5 8 -11 0 -5 -4 -7 -10
-4 -5 3 -10 -1 -10 -10 0 -9 4 -13 10 -10 5 3 10 -1 10 -10 0 -9 -4 -13 -10
-10 -6 3 -10 -4 -10 -18 0 -24 -62 -91 -74 -80 -3 4 -6 -1 -6 -11 0 -10 -5
-14 -12 -10 -7 5 -8 3 -2 -7 12 -20 14 -40 3 -33 -5 3 -7 9 -5 13 3 4 -1 8 -8
8 -7 0 -13 -6 -13 -13 0 -7 4 -11 9 -8 7 5 13 -18 9 -39 -1 -5 2 -6 7 -3 5 3
23 -4 41 -15 18 -11 30 -15 26 -10 -3 6 7 4 22 -4 17 -9 31 -11 38 -5 7 6 15
6 22 -1 8 -8 13 -7 18 2 6 8 4 10 -5 4 -9 -5 -11 -4 -6 3 5 9 13 9 27 1 13 -6
25 -7 32 -1 7 5 19 8 28 7 9 -2 16 3 16 11 0 7 -4 11 -9 8 -4 -3 -8 2 -8 10 0
10 6 13 15 10 16 -7 22 -98 7 -108 -4 -2 -9 -19 -10 -37 -1 -18 -8 -39 -15
-48 -7 -8 -7 -12 -1 -8 6 3 11 0 11 -8 0 -8 -4 -12 -9 -9 -4 3 -8 -2 -8 -11 0
-9 -4 -14 -8 -11 -4 2 -8 -6 -8 -19 0 -13 4 -21 8 -19 5 3 5 11 1 17 -4 7 0 6
10 -2 18 -15 23 -26 7 -16 -5 3 -10 -1 -10 -10 0 -10 -5 -13 -12 -9 -6 4 -8 3
-4 -4 3 -6 2 -13 -3 -16 -5 -4 -12 2 -14 11 -3 10 -5 -3 -6 -28 -1 -33 -5 -46
-16 -46 -8 0 -11 5 -7 11 12 20 11 38 -2 27 -6 -5 -13 -27 -14 -48 l-3 -37 26
24 c14 13 25 34 25 47 0 16 4 22 12 17 6 -4 8 -3 5 3 -9 15 24 41 47 37 10 -1
28 -14 39 -28 20 -25 25 -38 29 -78 1 -9 4 -15 6 -13 3 2 11 -3 19 -11 11 -11
19 -12 28 -4 9 7 15 7 19 1 4 -5 15 -8 26 -6 13 2 20 -2 20 -11 0 -8 5 -12 10
-9 7 4 10 -7 8 -30 -2 -27 -11 -46 -35 -69 -19 -17 -39 -31 -45 -31 -7 0 -14
-17 -16 -39 -3 -28 0 -36 9 -31 8 6 10 4 3 -6 -4 -8 -9 -19 -10 -25 -2 -15 38
-12 55 4 9 9 17 10 26 2 10 -8 15 -8 21 1 5 8 3 9 -6 4 -9 -5 -11 -4 -6 4 4 6
13 8 19 4 17 -11 38 -13 32 -3 -3 4 4 10 16 13 17 5 18 3 8 -9 -10 -12 -9 -13
5 -8 9 3 16 11 16 17 0 6 3 7 7 4 3 -4 11 -3 17 2 6 4 38 23 71 41 79 43 95
58 75 70 -12 8 -12 10 3 16 10 4 16 13 13 21 -4 8 4 17 20 23 14 6 23 14 19
19 -3 6 4 8 15 6 11 -2 20 1 20 6 0 6 5 7 10 4 6 -4 17 -1 25 5 12 10 15 9 15
-4 0 -13 20 -3 78 37 86 59 119 90 167 152 17 23 37 39 43 37 7 -2 36 -27 65
-56 87 -86 213 -162 326 -195 105 -31 205 -43 376 -46 l160 -3 -150 8 c-211
11 -367 46 -503 113 -58 29 -212 142 -212 156 0 3 16 7 35 8 19 1 48 11 64 22
16 12 33 21 38 21 6 0 18 9 28 20 18 20 18 21 -1 14 -10 -4 -23 -10 -29 -13
-5 -3 -38 -6 -73 -6 -35 0 -66 -5 -70 -11 -4 -5 -15 -10 -24 -11 -10 0 -28 -1
-41 -2 -13 0 -32 -9 -43 -18 -10 -10 -35 -18 -55 -18 -21 0 -36 -5 -36 -12 0
-7 5 -9 11 -6 6 3 0 -6 -13 -20 -13 -14 -29 -25 -35 -24 -6 1 -10 -8 -8 -22 2
-15 0 -21 -7 -16 -7 4 -10 1 -9 -7 2 -7 -3 -12 -9 -11 -7 2 -13 -4 -13 -14 0
-15 1 -15 18 0 10 10 27 17 38 17 17 0 16 -3 -6 -20 -25 -20 -60 -27 -60 -12
0 4 -11 8 -25 8 -14 0 -25 -6 -25 -14 0 -8 -5 -10 -12 -6 -8 5 -8 2 1 -10 12
-15 12 -17 0 -14 -8 2 -13 -3 -11 -11 3 -12 0 -12 -12 -1 -9 7 -16 19 -16 27
0 13 -3 13 -16 2 -21 -17 -44 -20 -44 -6 0 8 -3 8 -8 2 -8 -11 -52 -16 -49 -6
1 3 -3 8 -8 9 -6 2 -18 8 -28 13 -11 6 -17 6 -17 -1 0 -5 5 -10 10 -10 6 0 10
-4 10 -8 0 -5 -6 -9 -14 -9 -8 0 -15 3 -14 6 3 29 -4 39 -23 36 -18 -4 -19 -2
-8 13 7 9 9 14 4 9 -4 -4 -17 1 -28 10 -10 10 -22 17 -26 16 -3 -1 -5 6 -3 16
1 10 -5 24 -15 32 -16 12 -17 12 -6 -2 10 -13 10 -16 -1 -16 -13 0 -16 40 -3
53 4 4 7 14 6 23 0 12 -3 11 -9 -4 -8 -18 -9 -17 -9 8 -1 20 3 26 12 21 9 -6
9 -5 0 8 -7 8 -10 18 -6 22 11 11 12 137 2 130 -5 -3 -9 4 -9 15 0 11 -9 36
-20 56 -11 19 -20 37 -20 40 0 3 0 17 0 31 0 14 -4 23 -8 20 -5 -3 -9 1 -9 9
0 8 5 11 10 8 6 -4 7 -1 1 8 -5 8 -10 28 -11 44 0 17 -2 31 -3 33 -2 1 -4 11
-5 22 -1 11 -3 21 -5 23 -7 9 -7 38 1 43 6 4 6 11 -1 19 -8 10 -8 15 0 20 7 5
8 11 1 19 -6 7 -10 34 -10 61 0 28 0 183 0 345 0 335 1 360 13 379 7 10 6 12
-4 6 -10 -6 -11 -4 -4 6 5 8 10 79 11 159 4 173 6 211 16 227 4 6 3 14 -3 18
-6 4 -7 12 -3 18 4 7 8 28 9 47 2 19 5 53 8 75 12 83 15 112 22 165 3 30 13
63 22 74 10 10 17 21 17 25 0 3 4 5 8 3 5 -1 6 1 3 6 -3 5 1 21 9 36 8 14 10
24 6 21 -5 -2 -15 3 -22 12 -12 14 -12 16 1 8 13 -8 13 -7 1 8 -7 9 -10 17 -6
17 4 0 3 6 -2 13 -10 12 -8 58 4 87 3 8 7 24 8 35 5 44 16 122 23 150 3 17 6
76 5 132 0 57 4 100 8 97 5 -3 9 2 9 11 0 10 5 13 12 9 6 -4 8 -3 5 3 -4 6 2
18 12 28 11 9 18 25 16 36 -2 11 0 17 4 15 4 -3 14 10 21 29 7 19 16 32 20 30
3 -2 7 6 7 17 1 12 7 24 13 28 6 4 12 14 14 22 2 19 56 72 76 76 8 2 18 9 22
15 4 7 8 9 8 5 0 -4 16 1 36 13 20 11 39 18 41 15 6 -5 17 6 43 38 13 18 13
19 0 11 -11 -6 -10 -3 3 12 9 11 14 23 10 26 -3 4 -1 7 5 7 7 0 12 14 12 31 0
16 -4 28 -8 25 -5 -3 -9 1 -9 9 0 8 4 12 9 9 4 -3 8 -1 8 4 0 6 -7 13 -16 16
-8 3 -13 10 -9 15 3 6 -3 8 -15 6 -11 -2 -22 1 -25 6 -4 5 -12 6 -18 2 -19
-12 -37 -12 -34 0 1 5 -11 10 -28 10 -20 0 -29 -4 -27 -14 2 -9 -3 -7 -17 5
-12 11 -21 15 -21 10 0 -5 -5 -2 -10 6 -5 8 -10 10 -10 5 0 -6 -11 -11 -24
-11 -14 0 -24 5 -23 10 3 13 -26 14 -35 1 -5 -6 -8 -5 -8 3 0 7 -4 11 -9 7 -5
-3 -17 2 -25 11 -12 11 -16 12 -16 2 0 -10 -3 -9 -10 2 -5 8 -10 11 -10 6 0
-5 -8 -2 -18 7 -13 12 -21 14 -29 6 -8 -8 -13 -8 -18 0 -4 8 -11 7 -21 -3 -8
-8 -23 -13 -34 -11 -13 2 -20 -2 -20 -11 0 -8 -4 -12 -10 -9 -5 3 -10 -1 -10
-9 0 -8 -5 -18 -12 -22 -7 -5 -8 -3 -3 6 6 9 4 11 -4 6 -7 -5 -10 -10 -7 -13
2 -3 -4 -20 -14 -39 -12 -21 -15 -36 -9 -40 6 -3 6 -10 1 -17 -11 -13 0 -51
18 -62 8 -5 8 -11 -1 -21 -6 -8 -7 -14 -2 -14 5 0 10 -17 11 -37 2 -43 10 -53
43 -55 45 -2 60 2 53 13 -5 8 -1 8 14 0 15 -8 22 -8 25 2 3 7 6 4 6 -6 1 -10
5 -16 9 -13 10 6 8 -27 -3 -61 -4 -13 -12 -20 -19 -16 -6 4 -4 -2 4 -12 9 -11
10 -16 3 -11 -8 4 -13 1 -13 -9 0 -9 -5 -13 -11 -10 -7 5 -10 -17 -8 -70 2
-42 8 -79 13 -82 5 -4 6 0 1 8 -8 12 -6 12 8 0 16 -13 15 -26 -1 -26 -4 0 -13
-4 -20 -8 -6 -5 -12 -5 -12 0 0 4 -4 2 -8 -5 -5 -7 -19 -15 -32 -17 -13 -2
-26 -8 -29 -13 -3 -5 -18 -8 -33 -7 -15 1 -25 -2 -22 -7 3 -4 10 -5 16 -2 6 4
8 2 4 -4 -3 -6 -15 -9 -26 -6 -11 2 -29 6 -40 8 -14 3 -20 0 -20 -12 0 -15 -2
-15 -10 -2 -5 8 -10 11 -10 6 0 -5 -9 -1 -20 9 -18 16 -24 14 -22 -6 1 -3 -5
-6 -12 -6 -7 0 -13 6 -13 13 0 7 4 11 8 9 3 -3 13 3 20 12 10 12 10 14 1 9 -7
-4 -12 -1 -12 9 0 9 -4 14 -9 11 -10 -6 -9 12 0 29 7 12 -14 56 -27 57 -5 1
-21 12 -36 26 -42 40 -58 37 -58 -11 0 -22 3 -37 7 -34 9 10 32 -26 25 -38 -9
-14 -10 -55 -2 -50 4 2 7 -2 7 -10 0 -8 -3 -14 -6 -13 -20 2 -31 -4 -31 -17 0
-15 -7 -18 -42 -18 -10 0 -15 -4 -12 -8 3 -5 0 -9 -6 -9 -6 0 -23 -12 -38 -26
-15 -15 -20 -23 -12 -18 13 7 13 5 1 -9 -7 -9 -17 -14 -22 -11 -5 3 -8 0 -7
-8 2 -8 -6 -12 -22 -11 -14 1 -19 0 -13 -3 18 -8 16 -21 -1 -21 -8 0 -15 3
-14 6 3 26 -4 41 -15 35 -9 -6 -9 -5 1 8 10 13 9 18 -5 29 -9 8 -14 9 -10 2 4
-6 3 -14 -2 -17 -11 -7 -9 13 2 32 5 7 4 12 -2 12 -6 0 -11 5 -11 11 0 5 4 8
8 5 5 -3 9 1 9 9 0 8 -4 12 -9 9 -4 -3 -8 2 -8 11 0 10 5 13 13 9 7 -5 6 0 -3
11 -9 11 -10 16 -2 11 7 -4 12 -1 12 9 0 10 -5 13 -12 9 -7 -5 -8 -3 -2 7 13
21 14 40 1 33 -7 -4 3 9 21 28 24 26 30 38 21 43 -7 5 -10 4 -6 -2 4 -6 -1
-17 -10 -24 -15 -12 -16 -12 -8 1 6 8 10 20 10 25 1 6 6 9 13 8 7 -2 12 1 12
7 0 5 6 7 13 4 9 -3 13 4 11 24 -1 24 2 29 22 28 13 -1 26 -5 30 -9 4 -3 -3
-5 -14 -2 -12 2 -24 0 -26 -4 -3 -4 21 -6 52 -6 31 1 60 -4 64 -9 4 -6 8 -1 8
12 0 32 -1 37 -9 35 -4 -1 -8 6 -9 15 -3 32 -8 47 -16 61 -6 10 -5 12 3 7 6
-4 2 9 -9 29 -11 20 -15 33 -8 29 10 -6 10 -4 0 8 -7 9 -13 35 -14 57 0 22 -4
38 -9 36 -4 -3 -2 6 6 21 7 14 11 37 9 50 -7 40 -24 75 -32 70 -5 -3 -9 1 -9
9 0 8 5 11 11 8 6 -3 5 0 -1 8 -7 7 -13 24 -13 37 0 16 4 21 13 16 7 -5 6 0
-3 11 -8 10 -10 16 -4 12 6 -3 16 5 23 19 6 14 15 23 19 20 4 -2 8 6 8 19 0
13 -3 22 -7 19 -4 -2 -9 3 -13 11 -3 8 -12 15 -20 15 -7 0 -16 7 -20 15 -3 8
-13 15 -21 15 -9 0 -26 5 -38 12 -12 7 -28 13 -36 14 -8 2 -18 9 -22 16 -5 7
-9 -246 -9 -563z m220 -115 c0 -8 -19 -13 -24 -6 -3 5 1 9 9 9 8 0 15 -2 15
-3z m70 -70 c7 -7 2 -10 -13 -10 -13 0 -24 5 -24 12 0 14 23 12 37 -2z m87
-426 c2 -25 24 -45 46 -42 18 2 30 -10 34 -40 4 -21 -15 -48 -27 -41 -11 7 -6
-22 5 -32 4 -4 5 -2 0 6 -6 10 -4 12 5 6 9 -6 11 -4 5 6 -5 8 -4 10 0 6 17
-15 13 -36 -6 -32 -12 3 -19 -2 -20 -13 -1 -9 -5 -3 -9 13 -8 30 -8 30 -9 -7
-1 -25 -5 -37 -13 -35 -7 1 -12 -3 -11 -9 1 -6 -4 -11 -11 -11 -6 0 -12 11
-12 23 0 12 3 21 7 18 5 -2 7 11 6 29 -2 27 -6 34 -22 33 -11 -1 -23 -8 -27
-16 -4 -10 -7 -7 -7 11 -1 14 5 31 12 38 7 8 7 11 1 8 -8 -5 -11 3 -9 21 3 43
15 61 37 57 15 -3 17 -1 9 9 -8 9 -7 13 2 13 7 0 14 -9 14 -19z m103 -116 c0
-5 -7 -9 -15 -9 -8 0 -12 4 -9 9 3 4 9 8 15 8 5 0 9 -4 9 -8z m51 -35 c-16
-16 -38 -17 -38 -1 0 7 5 12 11 11 6 -1 10 4 8 12 -3 12 -1 12 13 1 11 -9 13
-16 6 -23z m-476 13 c4 -6 1 -9 -7 -8 -7 2 -12 -3 -10 -10 1 -8 -2 -11 -8 -7
-5 3 -10 -2 -11 -12 0 -11 -3 -13 -6 -5 -3 7 3 22 13 33 20 22 21 22 29 9z
m301 -15 c1 -8 -2 -13 -6 -10 -5 3 -11 -3 -13 -12 -4 -14 -2 25 2 46 2 9 15
-10 17 -24z m181 -38 c0 -8 -6 -14 -14 -14 -9 0 -10 4 -2 14 6 7 12 13 14 13
1 0 2 -6 2 -13z m20 -9 c-3 -8 -6 -5 -6 6 -1 11 2 17 5 13 3 -3 4 -12 1 -19z
m-268 -1471 c8 -10 7 -14 -2 -14 -8 0 -14 6 -14 14 0 7 1 13 2 13 2 0 8 -6 14
-13z m0 -80 c8 -10 7 -14 -2 -14 -8 0 -14 6 -14 14 0 7 1 13 2 13 2 0 8 -6 14
-13z m0 -80 c8 -10 7 -14 -2 -14 -8 0 -14 6 -14 14 0 7 1 13 2 13 2 0 8 -6 14
-13z m108 -419 c-3 -7 -5 -2 -5 12 0 14 2 19 5 13 2 -7 2 -19 0 -25z m783
-317 c0 -3 -8 -16 -18 -29 -19 -24 -52 -22 -52 4 0 19 10 18 27 -3 7 -10 13
-13 12 -8 -4 26 2 42 16 42 8 0 15 -3 15 -6z m-403 -208 c0 -7 -3 -11 -5 -8
-3 3 -12 -1 -21 -8 -14 -10 -14 -10 -4 4 7 9 11 18 8 21 -3 2 1 5 8 5 8 0 14
-6 14 -14z m-237 -169 c0 -8 -19 -13 -24 -6 -3 5 1 9 9 9 8 0 15 -2 15 -3z"/>
<path d="M429 3849 c0 -2 -2 -11 -4 -20 -1 -9 3 -16 10 -16 7 0 12 6 11 13 -2
13 -15 31 -17 23z"/>
<path d="M2390 4960 c-42 -5 -25 -7 73 -8 79 -1 127 2 127 8 0 11 -110 11
-200 0z"/>
<path d="M2589 4803 c-13 -16 -12 -17 4 -4 16 13 21 21 13 21 -2 0 -10 -8 -17
-17z"/>
<path d="M2663 4805 c0 -6 10 -11 22 -11 12 0 22 5 22 11 0 6 -10 11 -22 11
-12 0 -22 -5 -22 -11z"/>
<path d="M2106 4801 c-3 -4 6 -7 19 -7 14 0 22 2 19 5 -8 8 -34 10 -38 2z"/>
<path d="M2829 4803 c-3 -6 -7 -24 -8 -40 -2 -16 -3 -15 -10 2 -5 11 -7 22 -6
25 2 3 -7 5 -19 5 -13 0 -23 -5 -23 -12 0 -7 4 -10 9 -7 4 3 8 -1 8 -9 0 -14
-23 -17 -190 -20 -66 -2 -85 -5 -85 -16 0 -11 -19 -15 -87 -17 -48 -1 -92 -5
-98 -9 -5 -3 -10 2 -10 12 0 13 -7 19 -23 19 -13 0 -24 -5 -24 -11 0 -7 6 -12
13 -12 7 0 10 5 7 10 -4 6 -1 7 6 3 17 -11 5 -20 -27 -23 -15 -1 -36 -4 -48
-6 -13 -3 -21 0 -21 8 0 7 8 12 17 10 9 -2 23 1 31 6 20 14 -141 -5 -171 -20
-8 -5 -27 -7 -42 -6 -16 1 -28 -2 -28 -7 0 -4 -11 -8 -25 -8 -14 0 -25 -4 -25
-9 0 -6 10 -7 23 -4 25 6 103 20 157 27 26 4 30 3 15 -3 -11 -5 -30 -10 -42
-10 -13 -1 -23 -5 -23 -10 0 -5 -24 -12 -52 -15 -29 -4 -66 -14 -83 -21 -16
-8 -41 -16 -55 -18 -14 -2 -38 -9 -55 -16 -16 -6 -36 -14 -43 -16 -7 -3 -10
-10 -7 -15 5 -8 11 -7 21 1 8 6 14 9 14 6 0 -6 64 14 105 32 17 8 77 26 158
48 9 2 17 0 17 -5 0 -5 -64 -31 -142 -57 -79 -26 -149 -52 -155 -57 -7 -6 -13
-7 -13 -4 0 4 -11 -4 -25 -18 -14 -14 -25 -31 -25 -37 0 -7 9 -3 20 9 12 12
25 22 30 22 5 0 26 10 47 22 20 12 42 23 48 24 5 1 55 16 109 33 55 18 106 30
115 28 11 -3 9 -5 -6 -6 -12 0 -23 -4 -25 -8 -3 -7 -72 -39 -143 -67 -16 -6
-32 -13 -35 -16 -15 -15 -52 -30 -60 -25 -6 4 -10 1 -10 -5 0 -5 -25 -22 -55
-36 -30 -15 -55 -31 -55 -37 0 -6 -3 -7 -7 -4 -3 4 -12 2 -18 -3 -9 -7 -16 -6
-25 5 -7 9 -8 15 -2 15 5 0 13 8 16 17 5 13 0 11 -18 -6 -27 -26 -31 -32 -18
-30 19 3 23 -2 12 -16 -10 -12 -16 -13 -26 -4 -8 6 -11 15 -8 20 3 5 -2 6 -10
3 -9 -3 -16 -10 -16 -16 0 -5 4 -7 9 -3 5 3 12 1 15 -4 4 -5 1 -13 -4 -16 -11
-7 -31 -47 -36 -74 -1 -8 -7 -17 -12 -20 -5 -3 -19 -36 -31 -73 -12 -38 -42
-112 -67 -165 -25 -54 -59 -126 -75 -159 -16 -34 -29 -64 -29 -67 0 -3 -14
-35 -30 -70 -17 -36 -30 -68 -30 -71 0 -3 -9 -20 -20 -38 l-21 -33 7 30 c3 17
13 43 20 59 8 16 14 37 14 47 0 10 5 21 10 24 6 3 10 13 10 22 0 15 -14 10
-16 -5 0 -4 -10 -28 -22 -54 -12 -26 -22 -51 -22 -55 -1 -4 -9 -26 -20 -48
-10 -22 -16 -43 -14 -47 3 -5 0 -8 -5 -8 -6 0 -11 -7 -11 -15 0 -20 -49 -113
-64 -122 -7 -4 -7 -1 1 8 10 12 10 18 0 29 -9 10 -9 11 1 6 7 -4 12 -2 13 6 0
7 2 21 4 31 2 9 -1 15 -6 11 -5 -3 -7 -9 -4 -14 3 -4 -1 -13 -9 -19 -7 -6 -19
-33 -27 -59 -7 -26 -17 -50 -23 -54 -6 -4 -11 -12 -11 -18 0 -5 -3 -10 -7 -10
-7 0 -10 5 -7 13 0 1 2 10 4 20 3 15 1 16 -11 6 -8 -6 -14 -22 -14 -35 0 -13
-4 -24 -10 -24 -5 0 -10 -9 -10 -19 0 -11 -5 -23 -10 -26 -6 -4 -8 -10 -5 -15
3 -5 -5 -18 -17 -30 -13 -12 -23 -27 -23 -33 -1 -7 -6 -11 -13 -9 -7 1 -12 -2
-12 -8 0 -13 17 -13 25 0 4 6 11 8 16 4 5 -3 8 0 7 8 -2 7 3 12 10 10 6 -1 12
2 12 8 0 5 6 7 13 4 7 -2 22 3 32 13 11 10 30 19 43 19 21 1 22 -3 22 -63 0
-58 -2 -64 -18 -59 -16 6 -18 0 -17 -55 1 -33 -4 -71 -10 -83 -12 -22 -12 -31
0 -96 7 -34 6 -34 -12 -17 -11 9 -22 17 -25 17 -7 0 0 -36 12 -65 12 -30 30
-87 30 -97 0 -5 -5 -6 -11 -2 -13 7 -9 -17 21 -136 27 -107 54 -189 79 -235
35 -67 147 -202 208 -250 72 -57 248 -145 289 -145 20 0 38 -8 52 -24 11 -14
39 -30 61 -37 23 -7 41 -15 41 -19 0 -4 6 -7 13 -7 73 -5 141 -14 146 -20 3
-4 12 -9 20 -11 12 -3 12 0 1 13 -11 13 -10 15 6 9 10 -4 24 -10 29 -14 6 -4
23 -6 38 -5 15 1 30 -3 34 -8 4 -6 1 -7 -8 -2 -8 5 -11 4 -6 0 4 -5 33 -9 63
-10 37 0 58 -5 64 -15 7 -10 10 -11 10 -2 0 6 5 12 11 12 5 0 8 -4 5 -8 -3 -5
1 -9 9 -9 8 0 12 4 9 8 -8 14 14 19 28 6 16 -16 92 -14 112 2 11 9 16 9 22 0
5 -8 3 -9 -6 -4 -9 6 -11 4 -5 -4 5 -9 10 -10 18 -2 13 13 41 15 33 3 -2 -4 6
-8 19 -8 13 0 21 4 19 8 -3 5 -11 5 -17 2 -8 -5 -8 -3 0 6 14 15 46 23 38 10
-3 -5 10 -8 29 -7 19 1 32 5 30 9 -3 4 -13 5 -24 3 -12 -2 -18 0 -15 4 2 5 18
7 35 6 17 -1 30 2 30 9 0 7 4 6 9 -2 12 -20 16 -19 40 2 12 11 21 15 21 10 0
-5 4 -4 8 3 7 10 41 20 81 22 8 1 12 4 8 7 -3 4 -64 8 -134 9 -70 1 -139 7
-153 12 -14 6 -33 9 -42 8 -13 -2 -18 4 -18 21 0 14 -4 23 -9 20 -5 -3 -14 1
-20 8 -9 11 -9 16 0 22 8 4 9 3 5 -4 -10 -17 -1 -15 14 3 10 12 8 14 -9 10
-12 -2 -21 1 -21 6 0 6 -4 7 -10 4 -5 -3 -10 -1 -10 4 0 6 -6 10 -12 9 -7 -2
-12 3 -10 10 1 8 -1 11 -6 8 -5 -3 -28 13 -51 34 -24 22 -47 38 -52 34 -5 -3
-9 -1 -9 3 0 5 -10 13 -22 18 -13 6 -22 17 -20 24 1 7 -1 10 -6 7 -5 -3 -21 7
-37 22 -16 15 -32 27 -35 27 -3 0 -4 3 -2 8 1 4 -4 6 -10 5 -7 -2 -12 3 -10
10 1 6 -1 11 -5 10 -5 -1 -24 13 -43 31 -19 19 -28 30 -20 25 13 -7 13 -6 1 9
-8 10 -16 15 -19 13 -5 -6 -22 11 -39 39 -6 11 -16 19 -23 17 -6 -1 -9 2 -6 7
4 5 2 12 -4 16 -6 4 -7 11 -4 17 4 7 2 8 -4 4 -7 -4 -12 -1 -12 8 0 9 -3 15
-7 15 -20 -3 -24 2 -13 16 10 12 9 16 -4 21 -9 3 -16 16 -16 28 0 15 -3 17 -9
8 -6 -11 -10 -10 -16 5 -9 21 -14 41 -17 65 -1 9 -6 14 -10 12 -4 -3 -8 6 -8
19 0 13 -3 27 -7 31 -4 3 -8 12 -9 19 -2 13 -12 61 -18 92 -19 97 -26 286 -14
395 14 127 18 138 63 177 144 129 188 159 225 157 14 -1 31 3 38 9 7 6 12 6
10 1 -2 -5 0 -9 3 -9 3 0 13 -8 23 -17 10 -10 23 -18 30 -18 8 0 19 -6 25 -14
25 -30 125 -72 166 -70 22 1 45 -1 50 -4 24 -15 37 -8 55 28 11 22 20 51 20
65 0 45 49 23 53 -24 1 -12 5 -21 10 -21 4 0 -2 -10 -13 -22 -21 -23 -21 -23
-2 -26 11 -2 35 1 53 6 33 8 34 10 37 60 3 52 2 53 -53 107 -31 30 -60 55 -65
55 -6 0 7 -16 29 -35 43 -39 64 -83 30 -62 -10 6 -19 15 -19 20 0 4 -4 6 -9 2
-5 -3 -12 -1 -16 5 -3 5 -15 10 -26 10 -10 0 -19 4 -19 9 0 5 -29 17 -65 27
-69 20 -78 29 -42 44 21 8 20 9 -13 16 -19 5 -39 7 -43 6 -14 -4 5 22 32 43
14 11 39 23 56 27 16 3 41 9 55 13 36 9 143 14 155 7 17 -11 90 -10 96 0 12
19 -4 50 -41 77 l-37 27 69 74 c37 41 68 79 68 83 0 4 16 31 36 60 20 29 34
44 30 34 -22 -65 -17 -85 11 -49 12 15 13 14 7 -13 -25 -127 -88 -300 -119
-325 -8 -7 -15 -22 -15 -34 0 -15 -3 -17 -9 -7 -6 9 -11 10 -15 2 -4 -6 -4
-11 0 -11 3 0 1 -7 -6 -15 -7 -8 -9 -15 -5 -15 4 0 1 -8 -6 -17 -8 -9 -9 -14
-2 -10 13 8 12 -18 -2 -30 -4 -4 -5 -2 0 6 6 10 4 12 -4 7 -8 -6 -9 -12 -2
-20 6 -7 8 -16 4 -20 -4 -4 -8 -17 -9 -30 -1 -29 17 -28 51 4 22 21 30 20 26
-2 -2 -13 6 -9 20 9 10 11 10 14 2 9 -19 -11 -16 -1 4 15 10 8 14 9 10 2 -4
-6 -3 -14 3 -18 5 -3 10 0 10 7 0 9 3 9 10 -2 8 -13 10 -13 10 1 0 9 7 16 15
16 10 0 12 -4 5 -12 -7 -8 -5 -12 5 -12 8 0 13 3 11 6 -2 3 0 15 5 26 5 14 8
16 8 4 1 -9 8 -16 16 -16 8 0 15 7 16 16 0 9 3 11 5 4 3 -7 21 6 42 30 20 23
40 44 44 47 4 3 9 17 12 30 2 14 9 24 15 23 5 -2 8 3 5 11 -3 8 3 20 14 27 11
8 20 18 20 22 0 5 2 11 5 13 13 13 5 -120 -8 -146 -9 -17 -16 -33 -16 -37 -1
-5 -5 -18 -10 -31 -13 -35 -18 -70 -11 -77 4 -4 8 -11 8 -16 1 -5 2 -10 4 -11
4 -6 12 -46 19 -103 7 -46 10 -55 16 -37 8 24 20 29 29 10 3 -7 3 -2 0 11 -5
19 -3 23 10 18 10 -4 16 -1 16 7 0 10 7 12 22 8 21 -5 21 -6 2 -13 -13 -5 -14
-8 -4 -9 12 0 12 -3 -2 -11 -61 -35 -36 -104 53 -144 31 -14 64 -25 73 -25 10
0 25 -4 34 -9 9 -5 51 -12 92 -15 41 -3 84 -7 96 -8 16 -2 21 -10 23 -41 3
-54 4 -60 18 -74 6 -7 9 -22 6 -33 -4 -16 0 -20 20 -20 29 0 93 25 102 40 3 5
22 10 42 10 20 0 33 3 30 7 -4 3 -1 13 6 21 10 13 9 14 -3 7 -8 -4 -5 3 7 16
12 13 22 26 22 29 -1 15 23 62 28 56 3 -3 11 4 18 17 6 12 17 21 23 20 6 -2 9
13 8 37 -2 22 1 40 5 40 5 0 9 -22 9 -50 0 -27 -4 -50 -10 -50 -5 0 -10 -11
-10 -23 0 -13 -8 -39 -17 -58 -26 -51 -25 -64 3 -38 13 12 24 29 24 37 0 9 3
12 7 9 9 -9 31 37 37 76 2 17 5 32 6 32 6 0 4 58 -3 62 -4 2 -2 12 5 21 10 12
10 14 1 8 -10 -5 -13 6 -13 45 0 48 1 51 14 33 9 -12 11 -23 5 -30 -6 -8 -6
-13 0 -16 5 -1 11 -14 13 -28 2 -14 6 -30 10 -35 11 -18 3 -109 -13 -141 -12
-24 -13 -31 -3 -31 7 0 11 4 8 9 -3 4 -1 8 5 8 5 0 12 -6 15 -12 3 -7 3 -2 0
11 -4 17 -3 21 6 16 9 -6 9 -3 1 14 -7 12 -10 25 -7 30 7 11 9 131 3 157 -3
12 -6 43 -8 70 -1 27 -5 54 -8 59 -3 6 -6 21 -7 35 0 14 -4 32 -7 40 -4 8 -8
29 -11 45 -2 17 -5 30 -6 30 -1 0 -3 18 -4 40 0 22 -5 46 -9 53 -5 6 -6 12 -3
12 3 0 -1 12 -9 27 -8 15 -11 31 -8 36 3 6 1 7 -5 3 -8 -5 -12 2 -12 19 0 15
-4 24 -10 20 -9 -6 -13 7 -13 48 0 9 -4 17 -8 17 -5 0 -9 14 -9 30 0 17 -5 30
-12 30 -6 0 -8 3 -5 7 4 3 16 -2 27 -12 16 -15 18 -21 7 -34 -10 -14 -10 -14
4 -3 16 12 15 16 -7 59 -12 26 -20 51 -17 56 3 6 1 7 -5 3 -6 -4 -16 8 -23 28
-7 20 -17 32 -23 29 -6 -3 -8 -2 -3 2 4 5 -5 22 -20 38 -16 17 -23 27 -17 24
6 -3 11 0 11 7 0 8 -6 12 -12 10 -6 -3 -24 7 -38 22 -25 25 -31 37 -28 56 0 5
-4 7 -10 5 -12 -2 -49 53 -43 65 7 12 -14 19 -22 7 -5 -8 -3 -9 6 -4 9 5 11 4
6 -4 -9 -15 -37 4 -33 22 1 7 -4 11 -11 9 -8 -1 -11 2 -8 7 4 5 -1 17 -10 25
-8 9 -12 16 -8 16 3 0 1 7 -6 15 -10 12 -16 13 -28 3 -13 -10 -14 -10 -8 0 5
8 -2 15 -18 22 -14 5 -26 16 -26 24 0 10 -6 13 -16 9 -13 -5 -15 -2 -9 15 7
23 0 26 -39 22 -10 -1 -15 3 -12 8 3 5 -5 13 -19 16 -16 4 -25 13 -25 27 0 11
4 18 8 15 5 -3 9 1 9 9 0 11 -5 12 -20 4 -14 -8 -22 -7 -31 2 -8 9 -8 10 1 5
6 -3 14 -2 17 3 7 11 -13 9 -33 -3 -9 -6 -12 -5 -7 2 4 6 -4 16 -16 23 -13 6
-34 21 -48 33 -23 19 -23 19 -10 1 13 -18 11 -17 -10 2 -14 12 -28 22 -33 22
-32 2 -127 41 -99 41 6 0 12 5 12 12 0 6 -3 8 -7 5 -3 -4 -12 -2 -19 4 -7 5
-44 13 -83 16 -39 3 -72 10 -72 14 -5 32 -3 44 8 44 6 0 15 3 19 8 4 4 -5 6
-19 5 -15 -1 -28 -4 -28 -5z m-289 -69 c0 -8 -19 -13 -24 -6 -3 5 1 9 9 9 8 0
15 -2 15 -3z m835 -254 c3 -5 1 -10 -4 -10 -6 0 -11 5 -11 10 0 6 2 10 4 10 3
0 8 -4 11 -10z m-1739 -154 c-32 -49 -52 -92 -76 -161 -13 -38 -30 -81 -38
-95 l-14 -25 6 25 c4 14 9 37 12 53 4 15 11 27 16 27 5 0 7 4 4 8 -3 5 1 20 9
35 8 15 11 27 8 27 -3 0 1 8 10 18 9 10 18 27 20 39 1 12 14 33 27 47 31 32
37 33 16 2z m24 -41 c-7 -8 -17 -15 -23 -15 -5 0 -2 9 8 20 21 23 35 19 15 -5z
m1131 -15 c19 0 3 -110 -27 -184 -5 -14 -4 -17 5 -12 29 18 -65 -129 -114
-179 -28 -29 -48 -35 -82 -26 l-28 9 25 10 c14 6 19 11 12 11 -17 1 -3 25 44
76 35 38 84 126 84 153 0 8 5 10 12 6 8 -5 9 -2 5 10 -5 13 -3 17 5 13 8 -3
13 4 14 17 2 30 14 98 21 116 5 12 7 12 10 -2 3 -10 9 -18 14 -18z m-85 -112
c-9 -12 -16 -17 -16 -11 0 7 5 15 10 18 6 3 11 16 11 28 1 17 2 18 6 5 2 -10
-3 -28 -11 -40z m243 -38 c1 -32 -2 -50 -9 -50 -11 0 -13 73 -3 93 8 14 9 7
12 -43z m-24 -165 c-8 -64 -23 -119 -46 -172 -11 -24 -19 -47 -19 -52 0 -4
-10 -21 -22 -37 -13 -15 -17 -24 -10 -20 11 7 11 4 0 -13 -7 -12 -16 -21 -19
-21 -10 0 18 107 31 125 5 6 9 24 11 40 2 17 6 35 10 40 3 6 12 35 19 65 7 30
17 60 22 67 5 6 9 20 8 30 -1 10 -1 32 0 48 2 28 3 28 12 -10 5 -22 7 -62 3
-90z m-1425 61 c0 -2 -8 -10 -17 -17 -16 -13 -17 -12 -4 4 13 16 21 21 21 13z
m2280 -48 c0 -13 -23 -5 -28 10 -2 7 2 10 12 6 9 -3 16 -11 16 -16z m-2317
-20 c-22 -45 -26 -48 -17 -13 6 24 19 44 31 45 1 0 -6 -15 -14 -32z m1647
-165 c-11 -17 -11 -17 -6 0 3 10 7 26 7 35 1 15 2 15 6 0 2 -10 -1 -25 -7 -35z
m-827 -293 c-5 -47 -4 -50 26 -67 30 -18 40 -33 21 -33 -5 0 -10 4 -10 8 0 5
-11 14 -25 20 -14 7 -25 20 -25 31 0 11 -4 23 -10 26 -14 8 -13 38 2 53 22 22
27 13 21 -38z m417 24 c0 -8 -19 -13 -24 -6 -3 5 1 9 9 9 8 0 15 -2 15 -3z
m575 -144 c-7 -12 -32 -13 -39 -2 -2 4 7 9 20 10 15 1 22 -2 19 -8z m76 -7
c13 -15 11 -16 -11 -10 -14 4 -31 7 -37 7 -23 0 -13 16 11 18 13 1 30 -6 37
-15z m-2177 -94 c-3 -5 -10 -7 -15 -3 -5 3 -7 10 -3 15 3 5 10 7 15 3 5 -3 7
-10 3 -15z m2182 4 c31 -41 9 -103 -35 -103 l-29 0 19 37 c10 21 19 48 19 60
0 28 8 29 26 6z m401 -55 c-3 -8 -6 -5 -6 6 -1 11 2 17 5 13 3 -3 4 -12 1 -19z
m3 -27 c0 -4 -10 -12 -22 -20 -20 -13 -22 -12 -11 1 7 8 11 17 8 20 -3 2 2 5
10 5 8 0 15 -3 15 -6z m-83 -153 c-3 -7 -5 -2 -5 12 0 14 2 19 5 13 2 -7 2
-19 0 -25z"/>
<path d="M2240 4791 c0 -5 -81 -27 -127 -33 -7 -1 -10 -5 -7 -9 2 -5 10 -6 17
-4 27 8 173 29 182 26 6 -1 6 1 2 6 -5 4 -13 9 -18 9 -5 1 -10 2 -11 4 -8 6
-38 7 -38 1z"/>
<path d="M2426 4788 c3 -5 10 -6 15 -3 13 9 11 12 -6 12 -8 0 -12 -4 -9 -9z"/>
<path d="M2888 4789 c-15 -10 -14 -10 72 -14 33 -1 63 -4 68 -5 4 -1 11 -2 15
-1 4 1 17 -3 27 -9 16 -8 20 -8 20 4 0 9 -10 13 -30 12 -16 -1 -31 2 -32 6 -4
11 -124 17 -140 7z"/>
<path d="M2323 4784 c8 -9 47 -13 51 -6 2 4 -9 8 -25 8 -17 1 -28 0 -26 -2z"/>
<path d="M2400 4749 c0 -5 5 -9 10 -9 6 0 12 0 15 0 14 0 8 13 -7 16 -10 1
-18 -2 -18 -7z"/>
<path d="M3120 4750 c0 -5 5 -10 11 -10 5 0 7 5 4 10 -3 6 -8 10 -11 10 -2 0
-4 -4 -4 -10z"/>
<path d="M2366 4742 c-3 -5 1 -9 9 -9 8 0 15 4 15 9 0 4 -4 8 -9 8 -6 0 -12
-4 -15 -8z"/>
<path d="M3205 4710 c3 -6 13 -10 21 -10 8 0 14 -7 14 -15 0 -8 7 -15 15 -15
13 0 13 3 -2 18 -20 21 -58 38 -48 22z"/>
<path d="M1910 4660 c-8 -5 -17 -7 -21 -4 -4 2 -13 -4 -20 -14 -12 -15 -12
-16 1 -6 8 6 23 10 32 9 10 -2 21 1 24 7 9 14 1 18 -16 8z"/>
<path d="M3306 4642 c-3 -5 1 -9 9 -9 8 0 12 4 9 9 -3 4 -7 8 -9 8 -2 0 -6 -4
-9 -8z"/>
<path d="M3330 4613 c8 -3 22 -11 30 -17 13 -10 13 -9 1 7 -7 9 -21 17 -30 16
-13 0 -14 -1 -1 -6z"/>
<path d="M3386 4568 c3 -5 10 -6 15 -3 13 9 11 12 -6 12 -8 0 -12 -4 -9 -9z"/>
<path d="M1549 4483 c-13 -16 -12 -17 4 -4 9 7 17 15 17 17 0 8 -8 3 -21 -13z"/>
<path d="M1703 4463 c0 -9 4 -10 14 -2 7 6 13 12 13 14 0 1 -6 2 -13 2 -8 0
-14 -6 -14 -14z"/>
<path d="M1512 4454 c-7 -8 -8 -14 -3 -14 10 0 25 19 20 25 -2 1 -10 -3 -17
-11z"/>
<path d="M1569 4425 c-1 -3 -2 -11 -3 -17 -1 -7 -8 -12 -16 -10 -11 3 -11 0 0
-12 8 -11 9 -16 1 -16 -6 0 -10 -13 -9 -30 2 -21 5 -27 13 -19 5 5 10 15 10
22 0 7 6 12 13 12 14 0 16 11 6 40 -3 11 -6 23 -5 28 1 8 -8 10 -10 2z"/>
<path d="M4881 4412 c0 -13 -5 -20 -11 -17 -6 4 -10 -5 -10 -21 l0 -27 25 23
c25 24 33 36 16 25 -5 -3 -12 5 -14 17 l-4 23 -2 -23z"/>
<path d="M29 3927 c-8 -19 -4 -34 10 -32 9 1 19 -5 23 -14 5 -10 6 -5 4 13 -1
18 -9 30 -19 32 -9 1 -17 2 -18 1z m31 -13 c0 -8 -19 -13 -24 -6 -3 5 1 9 9 9
8 0 15 -2 15 -3z"/>
<path d="M1356 3893 c-6 -14 -5 -15 5 -6 7 7 10 15 7 18 -3 3 -9 -2 -12 -12z"/>
<path d="M1339 3858 c-5 -18 -6 -38 -1 -34 7 8 12 36 6 36 -2 0 -4 -1 -5 -2z"/>
<path d="M2666 3448 c3 -5 10 -6 15 -3 13 9 11 12 -6 12 -8 0 -12 -4 -9 -9z"/>
<path d="M2408 3333 c7 -3 16 -2 19 1 4 3 -2 6 -13 5 -11 0 -14 -3 -6 -6z"/>
<path d="M3180 3136 c0 -2 7 -9 15 -16 9 -7 15 -8 15 -2 0 5 -7 12 -15 16 -8
3 -15 4 -15 2z"/>
<path d="M3970 3108 c0 -13 -6 -35 -14 -50 -12 -23 -12 -29 0 -39 8 -6 14 -10
15 -8 0 2 2 11 4 19 14 64 16 100 6 100 -6 0 -11 -10 -11 -22z"/>
<path d="M3220 3116 c0 -2 8 -10 18 -17 15 -13 16 -12 3 4 -13 16 -21 21 -21
13z"/>
<path d="M5380 3094 c0 -8 -4 -12 -10 -9 -5 3 -10 1 -10 -6 0 -7 -3 -9 -7 -6
-3 4 -13 1 -21 -6 -13 -10 -14 -9 -7 3 8 13 7 13 -10 0 -10 -8 -28 -15 -39
-15 -12 -1 -20 -7 -18 -14 1 -7 -2 -10 -8 -6 -6 3 -8 11 -5 16 4 5 -4 5 -19
-1 -14 -5 -26 -7 -26 -4 0 4 -6 1 -14 -5 -10 -9 -16 -9 -21 -1 -5 8 -11 8 -19
1 -7 -6 -16 -8 -19 -4 -4 3 -7 -1 -7 -9 0 -11 -9 -15 -30 -13 -16 1 -30 -2
-30 -7 0 -5 -4 -6 -10 -3 -5 3 -10 2 -10 -4 0 -5 -9 -8 -21 -6 -16 3 -18 1
-10 -9 9 -11 5 -13 -19 -11 -25 2 -30 -1 -30 -19 0 -17 -6 -22 -25 -22 -18 0
-22 3 -14 12 7 9 5 12 -8 9 -10 -1 -25 4 -35 12 -11 10 -18 11 -23 3 -5 -8
-11 -8 -21 1 -8 6 -14 8 -14 4 0 -4 -7 -2 -15 5 -13 11 -14 10 -9 -4 3 -9 9
-16 14 -16 4 0 15 -18 25 -40 21 -47 43 -69 53 -53 4 5 15 9 25 7 13 -2 15 1
8 10 -7 9 -1 12 24 12 18 0 33 -4 32 -9 -1 -5 6 -11 16 -12 15 -3 16 -1 5 13
-12 16 -11 16 7 1 16 -13 42 -16 118 -15 55 1 101 -3 104 -7 3 -4 11 -3 18 3
9 8 17 7 27 -3 23 -23 51 -34 88 -33 l35 1 3 138 c2 89 -1 137 -8 137 -5 0
-10 -7 -10 -16z"/>
<path d="M3851 3023 c-20 -24 -27 -41 -21 -47 5 -5 11 -8 13 -5 10 16 45 89
42 89 -2 0 -17 -17 -34 -37z"/>
<path d="M4270 3020 c0 -5 5 -10 11 -10 5 0 7 5 4 10 -3 6 -8 10 -11 10 -2 0
-4 -4 -4 -10z"/>
<path d="M3768 3003 c7 -3 16 -2 19 1 4 3 -2 6 -13 5 -11 0 -14 -3 -6 -6z"/>
<path d="M3906 2961 c-3 -5 1 -11 9 -15 8 -3 15 -1 15 4 0 13 -18 22 -24 11z"/>
<path d="M2720 2872 c-28 -4 -60 -29 -60 -46 0 -7 19 -11 47 -10 65 0 93 -6
93 -21 0 -16 27 -28 35 -15 3 5 1 11 -4 14 -5 3 -7 14 -4 24 9 35 -48 64 -107
54z"/>
<path d="M2940 2806 c-34 -22 -81 -69 -52 -52 7 4 30 10 50 12 82 9 97 17 82
45 -14 25 -37 23 -80 -5z"/>
<path d="M3220 2797 c0 -28 77 -51 163 -49 91 2 113 -2 115 -21 0 -6 4 -31 8
-55 6 -38 3 -48 -30 -98 -21 -31 -35 -58 -32 -61 2 -3 35 -11 73 -19 37 -7 78
-15 91 -18 12 -3 22 0 22 5 0 12 46 59 57 59 12 0 96 89 110 118 17 33 16 47
-2 32 -8 -7 -15 -17 -15 -22 0 -5 -7 -16 -15 -24 -8 -9 -15 -13 -15 -9 0 4 -6
0 -14 -7 -7 -7 -24 -20 -36 -28 -13 -8 -35 -24 -49 -36 -66 -52 -58 -27 13 45
84 85 111 129 53 89 -18 -12 -34 -25 -37 -28 -13 -17 -95 -70 -107 -70 -8 0 3
21 29 53 24 29 52 65 63 80 11 15 28 27 38 27 10 0 16 4 12 9 -3 5 -1 12 5 16
6 4 8 11 4 16 -4 6 -11 6 -20 -2 -7 -6 -21 -8 -30 -5 -14 5 -15 4 -5 -8 10
-12 7 -21 -21 -48 -43 -44 -128 -102 -128 -88 0 5 4 10 9 10 5 0 8 7 7 15 -2
21 66 104 86 105 9 0 19 3 21 8 3 4 -17 5 -43 4 -33 -3 -47 -8 -44 -16 3 -7
-5 -21 -17 -32 l-21 -19 6 31 c7 29 6 30 -26 28 -18 -1 -58 -7 -88 -13 -61
-13 -140 0 -161 25 -15 18 -29 18 -29 1z"/>
<path d="M3755 2740 c3 -5 8 -10 11 -10 2 0 4 5 4 10 0 6 -5 10 -11 10 -5 0
-7 -4 -4 -10z"/>
<path d="M3786 2742 c-3 -5 1 -9 9 -9 8 0 12 4 9 9 -3 4 -7 8 -9 8 -2 0 -6 -4
-9 -8z"/>
<path d="M4042 2655 c-35 -44 -94 -237 -90 -292 3 -47 4 -48 35 -47 18 0 31
-4 30 -10 -1 -6 4 -10 11 -8 11 2 18 -34 13 -62 -5 -22 30 19 41 49 6 19 16
31 22 28 6 -4 5 0 -2 9 -15 19 2 37 31 33 9 -2 17 -1 17 1 0 22 -45 204 -64
257 l-24 68 -20 -26z"/>
<path d="M4330 2665 c-20 -24 3 -239 31 -301 31 -69 39 -77 55 -63 12 9 12 15
2 27 -11 13 -11 14 0 8 19 -12 -5 30 -40 69 -26 29 -27 34 -29 153 0 67 -2
122 -4 122 -1 0 -8 -7 -15 -15z"/>
<path d="M4629 2653 c-20 -5 -66 -103 -78 -168 -10 -55 -12 -196 -2 -154 5 20
12 25 34 24 17 -1 27 3 27 12 0 8 4 12 9 9 11 -7 8 21 -4 31 -4 4 -5 2 0 -6 5
-10 4 -12 -4 -7 -19 12 -3 24 29 21 25 -2 30 1 30 20 0 12 -3 25 -7 29 -15 15
-11 34 8 31 10 -2 18 1 16 8 -4 19 -21 35 -32 29 -5 -3 -4 2 4 11 7 9 18 14
25 10 6 -4 5 1 -3 10 -7 9 -18 14 -25 10 -6 -4 -5 1 3 10 11 14 11 17 0 17
-12 0 -12 2 -1 9 8 4 14 12 15 17 1 5 6 8 10 6 5 -1 6 2 3 7 -7 11 -36 18 -57
14z"/>
<path d="M2550 2563 c-122 -18 -144 -25 -148 -44 -2 -12 8 -19 34 -24 21 -3
47 -13 58 -21 11 -8 27 -14 36 -14 8 0 38 -11 65 -25 28 -13 56 -25 63 -25 7
0 11 -4 7 -9 -3 -6 4 -8 15 -6 11 2 18 0 15 -5 -3 -4 2 -16 12 -25 13 -14 14
-18 3 -25 -8 -5 -19 -6 -25 -2 -5 3 -5 -1 2 -9 23 -29 183 -18 183 13 0 5 1
11 2 16 1 4 -23 8 -53 9 -64 3 -113 18 -104 33 3 6 -1 13 -9 16 -23 9 -20 21
7 27 20 5 215 -6 314 -17 44 -6 54 3 57 50 1 19 -1 20 -27 12 -24 -9 -33 -6
-74 26 -25 20 -52 37 -60 37 -27 3 -31 4 -39 12 -10 10 -36 9 -30 -1 3 -5 -1
-9 -9 -9 -8 0 -13 5 -12 11 3 16 -174 15 -283 -1z"/>
<path d="M3738 2518 c-10 -15 -31 -35 -48 -44 -34 -21 -37 -29 -14 -38 8 -3
13 -2 10 3 -6 9 31 25 49 21 6 -1 7 2 2 6 -4 4 0 15 9 25 9 10 14 25 12 35 -3
15 -6 14 -20 -8z"/>
<path d="M3279 2278 c-49 -73 -113 -135 -221 -216 l-77 -57 -2 -65 c-1 -36 -3
-82 -4 -102 -1 -21 2 -38 7 -38 5 0 8 6 7 13 -4 32 2 37 49 37 26 0 79 -9 117
-19 97 -25 216 -62 237 -72 10 -5 25 -9 33 -9 8 0 15 -5 15 -11 0 -5 -4 -7
-10 -4 -5 3 -10 1 -10 -4 0 -6 6 -11 13 -12 6 0 1 -5 -12 -10 -18 -7 -21 -13
-14 -20 8 -8 6 -21 -7 -45 -12 -21 -15 -36 -9 -40 6 -4 6 -11 -2 -20 -15 -18
-11 -22 26 -24 65 -4 101 0 85 10 -8 5 -10 10 -5 10 6 0 16 20 24 44 10 35 10
49 0 67 -17 33 -35 49 -45 41 -4 -4 2 6 14 22 12 16 22 38 22 49 0 17 5 19 43
14 23 -4 54 -9 70 -13 41 -10 34 10 -28 79 -72 80 -118 173 -121 241 -1 28 -3
51 -4 51 -8 0 -5 57 3 62 6 3 7 1 3 -5 -3 -6 -3 -13 2 -16 4 -2 8 7 8 21 0 18
-11 32 -40 52 -37 25 -96 51 -117 51 -4 0 -26 -28 -50 -62z"/>
<path d="M3251 2307 c-8 -10 -7 -14 2 -14 8 0 14 6 14 14 0 7 -1 13 -2 13 -2
0 -8 -6 -14 -13z"/>
<path d="M2206 1822 c-3 -5 1 -9 9 -9 8 0 12 4 9 9 -3 4 -7 8 -9 8 -2 0 -6 -4
-9 -8z"/>
<path d="M4141 1787 c-1 -12 -5 -16 -13 -11 -10 6 -10 5 0 -8 10 -13 9 -18 -5
-29 -9 -8 -14 -9 -10 -2 4 6 3 14 -1 17 -5 3 -9 -15 -8 -39 0 -24 5 -43 11
-42 5 1 9 -5 7 -13 -2 -8 0 -11 4 -7 11 11 14 38 4 32 -5 -3 -11 -2 -14 3 -2
4 6 8 19 8 14 0 21 -4 17 -10 -12 -19 -14 -58 -2 -51 5 3 10 -1 10 -10 0 -9 4
-14 8 -11 5 3 9 -1 9 -9 0 -8 -4 -12 -9 -9 -4 3 -8 -2 -8 -11 0 -9 5 -13 10
-10 6 3 10 1 10 -4 0 -6 -4 -11 -10 -11 -5 0 -10 -7 -10 -16 0 -8 4 -13 9 -9
5 3 12 1 15 -4 4 -5 -2 -11 -11 -13 -10 -2 17 -3 60 -2 42 2 77 5 77 8 0 3 0
18 0 32 0 17 -4 23 -12 18 -10 -6 -10 -4 -2 7 16 22 19 83 3 74 -8 -6 -10 -4
-3 6 4 8 9 24 10 36 1 16 -4 20 -18 18 -17 -4 -18 -2 -7 11 10 12 10 15 -2 12
-8 -2 -18 -7 -22 -13 -5 -6 -7 -3 -4 7 7 20 -22 47 -46 43 -9 -2 -15 1 -11 6
3 5 9 7 14 4 5 -3 11 -2 14 3 2 4 -11 8 -30 8 -24 0 -34 -5 -35 -16 0 -10 -3
-9 -9 5 -8 18 -9 18 -9 2z m156 -102 c0 -6 -6 -12 -12 -12 -6 0 -12 6 -12 12
0 6 6 12 12 12 6 0 12 -6 12 -12z m-80 -20 c0 -6 -6 -12 -12 -12 -6 0 -12 6
-12 12 0 6 6 12 12 12 6 0 12 -6 12 -12z m80 -62 c0 -9 -4 -10 -14 -2 -7 6
-13 12 -13 14 0 1 6 2 13 2 8 0 14 -6 14 -14z"/>
<path d="M4240 1784 c0 -17 27 -37 34 -25 4 5 2 12 -4 16 -5 3 -10 3 -10 -2 0
-4 -5 -1 -10 7 -5 8 -10 10 -10 4z"/>
<path d="M189 1763 c-13 -16 -12 -17 4 -4 9 7 17 15 17 17 0 8 -8 3 -21 -13z"/>
<path d="M4749 1706 c12 -14 11 -16 -3 -16 -10 0 -15 -4 -12 -8 3 -4 -8 -7
-24 -6 -16 1 -28 -2 -27 -6 1 -4 0 -8 -3 -7 -3 0 -15 -5 -28 -12 -14 -7 -28
-9 -35 -4 -7 5 -18 8 -24 7 -7 -1 -24 -2 -37 -3 -27 -1 -63 -56 -44 -67 6 -4
6 -10 -1 -17 -8 -8 -6 -16 6 -29 24 -27 27 -58 5 -58 -21 -1 213 -97 281 -115
33 -9 45 -10 40 -2 -15 25 -2 84 16 73 4 -3 8 1 8 9 0 8 -3 12 -7 10 -4 -2 -7
2 -7 10 0 8 4 12 9 9 4 -3 8 -2 8 3 0 4 17 21 37 37 20 16 33 23 28 15 -6 -11
-5 -12 6 -1 17 15 33 16 23 0 -5 -7 -2 -9 8 -5 9 3 21 0 28 -6 7 -7 1 6 -15
28 -44 62 -161 151 -225 170 -22 7 -23 6 -11 -9z m-92 -228 c-3 -8 -6 -5 -6 6
-1 11 2 17 5 13 3 -3 4 -12 1 -19z m-5 -22 c7 4 8 2 4 -4 -11 -18 -26 -14 -25
6 0 10 3 12 6 4 2 -6 10 -9 15 -6z"/>
<path d="M2980 1681 c0 -5 10 -11 23 -15 12 -3 41 -21 64 -41 89 -76 74 -182
-39 -279 -57 -50 -219 -126 -342 -162 -54 -16 -92 -30 -85 -32 25 -5 292 88
357 124 108 61 172 135 186 214 8 42 -5 125 -19 125 -6 0 -26 12 -46 28 -20
15 -43 27 -52 27 -9 0 -19 5 -22 10 -8 12 -25 13 -25 1z"/>
<path d="M381 1564 c0 -11 3 -14 6 -6 3 7 2 16 -1 19 -3 4 -6 -2 -5 -13z"/>
<path d="M4506 1522 c-3 -5 1 -9 9 -9 8 0 12 4 9 9 -3 4 -7 8 -9 8 -2 0 -6 -4
-9 -8z"/>
<path d="M4115 1500 c3 -5 12 -7 20 -3 21 7 19 13 -6 13 -11 0 -18 -4 -14 -10z"/>
<path d="M5068 1422 c-11 -13 -11 -14 1 -7 10 5 12 4 7 -3 -4 -7 -14 -12 -22
-12 -9 0 -14 -10 -14 -29 0 -18 -6 -31 -16 -35 -15 -6 -15 -4 -3 11 11 15 10
15 -9 -1 -12 -11 -20 -21 -17 -24 3 -3 0 -11 -6 -18 -9 -11 -5 -16 17 -25 47
-18 98 -24 90 -10 -4 6 -13 8 -19 4 -7 -4 -6 0 2 10 7 9 17 14 22 11 5 -3 9 0
9 6 0 6 5 8 10 5 6 -3 10 -2 10 4 0 12 73 6 100 -9 54 -29 -7 46 -88 108 -42
32 -57 35 -74 14z"/>
<path d="M1040 1326 c0 -37 3 -47 10 -36 5 8 10 11 10 6 0 -5 7 -3 15 4 12 10
13 16 3 27 -10 13 -13 12 -20 -4 -5 -14 -7 -11 -5 9 2 15 7 31 12 35 4 5 5 2
0 -6 -6 -10 -4 -12 5 -6 8 5 11 4 6 -3 -3 -6 -2 -13 3 -16 5 -4 12 -2 16 4 4
6 10 8 15 5 4 -3 13 2 20 10 15 18 17 17 -42 19 l-48 2 0 -50z m72 33 c2 -2 1
-3 -1 -2 -2 2 -9 -2 -16 -7 -8 -7 -12 -5 -12 4 0 12 22 16 29 5z"/>
<path d="M1202 1248 c-5 -7 -13 -23 -16 -34 -4 -12 -16 -24 -26 -27 -11 -3
-20 -10 -20 -16 0 -7 26 -11 70 -11 l70 0 0 -55 c0 -48 2 -55 20 -55 17 0 20
7 20 50 0 38 4 52 16 57 24 9 49 -10 52 -40 3 -21 -2 -28 -22 -33 -33 -8 -34
-34 -3 -34 28 0 53 25 62 62 6 22 1 33 -22 57 -17 16 -36 43 -43 60 -7 17 -16
31 -19 31 -4 0 -15 -16 -24 -35 -16 -33 -20 -35 -63 -35 -49 0 -50 2 -29 53 8
20 -8 23 -23 5z m148 -18 c0 -5 -5 -10 -11 -10 -5 0 -7 5 -4 10 3 6 8 10 11
10 2 0 4 -4 4 -10z m0 -30 c0 -5 -4 -10 -10 -10 -5 0 -10 5 -10 10 0 6 5 10
10 10 6 0 10 -4 10 -10z"/>
<path d="M1440 1251 c0 -5 5 -13 10 -16 18 -11 11 -45 -10 -45 -34 0 -11 -28
27 -32 34 -4 58 15 37 31 -5 3 -16 19 -24 35 -15 30 -40 47 -40 27z"/>
<path d="M210 1145 c7 -9 0 -12 -29 -11 -22 1 -39 -1 -38 -4 1 -3 -2 -5 -8 -5
-5 0 -9 4 -7 9 2 5 -4 4 -12 -4 -19 -15 -20 -21 -3 -17 6 1 11 -4 9 -11 -1 -8
2 -11 8 -7 6 4 10 -5 10 -20 0 -15 4 -24 10 -20 6 3 10 -2 10 -11 0 -10 3 -14
7 -11 3 4 15 -1 26 -10 15 -13 18 -14 12 -3 -7 12 -6 13 6 4 8 -6 22 -10 32
-9 9 2 17 0 17 -5 0 -10 69 -18 72 -9 2 4 15 9 29 11 15 2 33 9 41 16 8 6 17
10 19 7 3 -2 5 7 5 20 0 14 -4 25 -8 25 -4 0 -8 9 -8 19 0 14 -6 19 -20 16
-11 -2 -23 1 -26 7 -4 6 -2 8 4 4 6 -3 13 -3 16 2 3 5 -17 8 -45 7 -27 -1 -53
3 -56 8 -3 6 -1 7 5 3 6 -3 13 -3 15 2 3 4 -19 8 -49 8 -40 0 -51 -2 -44 -11z"/>
<path d="M1173 1111 c-52 -45 -45 -61 27 -61 47 0 60 3 60 15 0 10 -10 15 -30
15 -37 0 -38 8 -2 37 l27 22 -25 0 c-14 1 -40 -12 -57 -28z"/>
<path d="M1440 1095 c0 -33 4 -45 15 -45 11 0 15 12 15 45 0 33 -4 45 -15 45
-11 0 -15 -12 -15 -45z"/>
<path d="M2508 1133 c7 -3 16 -2 19 1 4 3 -2 6 -13 5 -11 0 -14 -3 -6 -6z"/>
<path d="M2310 1120 l-95 -6 85 -1 c47 -1 108 2 135 7 46 7 47 7 10 7 -22 -1
-83 -4 -135 -7z"/>
<path d="M23 881 c0 -66 -4 -91 -13 -86 -6 3 -10 -5 -10 -19 0 -14 5 -28 10
-31 8 -5 7 -12 -2 -23 -8 -10 -9 -13 -1 -9 6 4 15 3 18 -3 5 -8 11 -7 21 1 8
6 14 8 14 4 0 -5 8 -1 18 8 10 10 21 15 24 12 2 -3 5 2 5 10 0 8 -5 11 -11 8
-6 -4 -5 0 1 8 10 12 10 18 0 29 -6 7 -7 10 -1 7 6 -3 11 0 11 7 0 8 -7 13
-16 11 -9 -1 -21 8 -27 19 -6 12 -16 20 -23 18 -8 -1 -10 2 -5 10 13 21 13 35
-1 35 -7 0 -12 -7 -12 -16z"/>
<path d="M262 871 c2 -20 -3 -31 -12 -26 -5 3 -10 0 -10 -8 0 -21 -26 -68 -33
-60 -4 3 -7 1 -7 -6 0 -21 -46 -61 -58 -49 -6 6 -12 6 -17 -3 -5 -8 -4 -10 3
-5 8 5 12 0 12 -13 0 -12 4 -21 9 -21 5 0 11 -9 14 -20 3 -11 17 -24 31 -30
14 -5 26 -12 26 -15 0 -4 -6 -3 -12 1 -10 5 -10 3 0 -7 11 -11 14 -12 21 -1 5
8 10 12 13 10 2 -1 23 13 47 34 37 31 41 39 32 56 -6 12 -11 30 -11 41 0 12
-4 21 -10 21 -5 0 -10 12 -10 26 0 16 -4 23 -12 18 -7 -5 -8 -3 -2 7 13 22 12
56 -2 56 -7 0 -13 -3 -12 -6z"/>
<path d="M4191 113 c-5 -21 -13 -56 -16 -78 -8 -55 9 -25 25 43 6 28 14 52 16
52 3 0 21 -7 41 -15 42 -18 46 -18 38 -4 -7 10 -26 19 -72 33 -19 6 -23 2 -32
-31z"/>
</g>
</svg>
